<?xml version="1.0" encoding="UTF-8"?>
<!DOCTYPE svg PUBLIC "-//W3C//DTD SVG 1.1//EN" "http://www.w3.org/Graphics/SVG/1.1/DTD/svg11.dtd">
<svg xmlns="http://www.w3.org/2000/svg" version="1.1" width="500px" height="500px" style="shape-rendering:geometricPrecision; text-rendering:geometricPrecision; image-rendering:optimizeQuality; fill-rule:evenodd; clip-rule:evenodd" xmlns:xlink="http://www.w3.org/1999/xlink">
<g><path style="opacity:0" fill="#fefefe" d="M -0.5,-0.5 C 166.167,-0.5 332.833,-0.5 499.5,-0.5C 499.5,166.167 499.5,332.833 499.5,499.5C 332.833,499.5 166.167,499.5 -0.5,499.5C -0.5,332.833 -0.5,166.167 -0.5,-0.5 Z"/></g>
<g><path style="opacity:1" fill="#a21f33" d="M 39.5,135.5 C 54.5,135.5 69.5,135.5 84.5,135.5C 84.5,211.5 84.5,287.5 84.5,363.5C 69.5,363.5 54.5,363.5 39.5,363.5C 39.5,287.5 39.5,211.5 39.5,135.5 Z"/></g>
<g><path style="opacity:1" fill="#a21f33" d="M 189.5,135.5 C 204.5,135.5 219.5,135.5 234.5,135.5C 234.5,211.5 234.5,287.5 234.5,363.5C 219.5,363.5 204.5,363.5 189.5,363.5C 189.5,287.5 189.5,211.5 189.5,135.5 Z"/></g>
<g><path style="opacity:1" fill="#304674" d="M 264.5,135.5 C 279.5,135.5 294.5,135.5 309.5,135.5C 309.5,211.5 309.5,287.5 309.5,363.5C 294.5,363.5 279.5,363.5 264.5,363.5C 264.5,287.5 264.5,211.5 264.5,135.5 Z"/></g>
<g><path style="opacity:1" fill="#324775" d="M 339.5,135.5 C 379.5,135.5 419.5,135.5 459.5,135.5C 459.5,150.833 459.5,166.167 459.5,181.5C 419.5,181.5 379.5,181.5 339.5,181.5C 339.5,166.167 339.5,150.833 339.5,135.5 Z"/></g>
<g><path style="opacity:1" fill="#828282" d="M 114.5,226.5 C 129.5,226.5 144.5,226.5 159.5,226.5C 159.5,241.833 159.5,257.167 159.5,272.5C 144.5,272.5 129.5,272.5 114.5,272.5C 114.5,257.167 114.5,241.833 114.5,226.5 Z"/></g>
<g><path style="opacity:1" fill="#c7d3e3" d="M 339.5,226.5 C 379.5,226.5 419.5,226.5 459.5,226.5C 459.5,241.833 459.5,257.167 459.5,272.5C 419.5,272.5 379.5,272.5 339.5,272.5C 339.5,257.167 339.5,241.833 339.5,226.5 Z"/></g>
<g><path style="opacity:1" fill="#324775" d="M 339.5,317.5 C 379.5,317.5 419.5,317.5 459.5,317.5C 459.5,332.833 459.5,348.167 459.5,363.5C 419.5,363.5 379.5,363.5 339.5,363.5C 339.5,348.167 339.5,332.833 339.5,317.5 Z"/></g>
</svg>
